<svg xmlns="http://www.w3.org/2000/svg" xmlns:xlink="http://www.w3.org/1999/xlink" aria-hidden="true" role="img" class="iconify iconify--logos" width="31.88" height="32" preserveAspectRatio="xMidYMid meet" viewBox="0 0 256 257"><defs><linearGradient id="IconifyId1813088fe11BC01431" x1="20.852%" x2="87.667%" y1="21.969%" y2="81.94%"><stop offset="0%" stop-color="#41D1FF"></stop><stop offset="100%" stop-color="#BD34FE"></stop></linearGradient><linearGradient id="IconifyId1813088fe11BC01432" x1="14.377%" x2="85.894%" y1="14.573%" y2="85.427%"><stop offset="0%" stop-color="#FFEA83"></stop><stop offset="8.333%" stop-color="#FFDD35"></stop><stop offset="100%" stop-color="#FFA800"></stop></linearGradient></defs><path fill="url(#IconifyId1813088fe11BC01431)" d="M255.803 116.715l-67.416 203.14c-1.206 3.63-4.59 6.145-8.413 6.145H76.026c-3.823 0-7.207-2.515-8.413-6.145L.197 116.715c-1.206-3.63 1.285-7.145 4.819-7.145H250.984c3.534 0 6.025 3.515 4.819 7.145z"></path><path fill="url(#IconifyId1813088fe11BC01432)" d="M185.032 263.135l-30.204-89.12c-1.206-3.63-4.59-6.145-8.413-6.145H109.585c-3.823 0-7.207 2.515-8.413 6.145l-30.204 89.12c-1.206 3.63 1.285 7.145 4.819 7.145h104.426c3.534 0 6.025-3.515 4.819-7.145z"></path></svg>
